:SAMPLES-PER-SECOND 30
:FULLY-SPECIFIED
:DEGREES
308
root  -2.66127 40.9799 0.839565 -4.68524 -88.3685 6.03157
RightUpLeg  3.32605 -0.663234 -0.326116
RightLeg  -3.34499 -18.8743 1.17241
RightFoot  -0.638814 -0.163 1.81438
RightToes  -3.10678e-008 1.75238e-005 3.56266e-009
Spine  0.252938 -2.43297 -12.158
Spine1  -1.83439 -5.04629 18.2853
HEad  0.104381 3.55793 -6.29659
LeftShoulder1  0.143003 2.75749 -11.9648
LeftArm  -48.4433 -36.1874 -0.753469
LeftForeArm  144.315 -73.9398 -142.319
LeftHand  -0.972185 -6.49027 9.82085
RightShoulder  2.11362 3.53697 23.9041
RightArm  -19.0397 -36.1302 47.3015
RightForeArm  41.1401 16.7337 6.05361
RightHand  -0.123899 3.77693 -1.82743
LeftUpLeg  1.9692 0.77653 1.94928
LeftLeg  -2.42273 12.583 -0.959675
LeftFoot  -0.176898 0.246574 -2.5149
LeftToes  4.76857e-008 1.46588e-008 1.31384e-009
309
root  -2.66215 40.9785 0.846631 -5.16835 -87.8233 6.71684
RightUpLeg  3.2034 -0.701272 -0.401929
RightLeg  -3.44667 -19.3577 1.22704
RightFoot  -0.636058 -0.161122 1.80628
RightToes  -3.10678e-008 1.75238e-005 3.56266e-009
Spine  -0.475848 -2.22856 -11.2895
Spine1  -1.32425 -4.79282 17.7509
HEad  -0.457084 2.70174 -6.91096
LeftShoulder1  0.372102 1.75684 -14.2259
LeftArm  -41.2122 -32.0597 -7.71137
LeftForeArm  142.907 -74.0887 -141.707
LeftHand  -0.961552 -5.61545 10.4393
RightShoulder  2.08184 3.42308 23.9413
RightArm  -20.1984 -35.8849 47.7131
RightForeArm  42.4449 16.2919 6.14822
RightHand  -0.0785263 4.20996 -1.22447
LeftUpLeg  1.69015 0.732428 1.89582
LeftLeg  -2.43946 12.0788 -1.01847
LeftFoot  -0.112607 0.243055 -2.45298
LeftToes  4.76857e-008 1.46588e-008 1.31384e-009
310
root  -2.64638 40.974 0.851395 -5.49844 -87.0008 7.17162
RightUpLeg  3.1156 -0.797924 -0.513842
RightLeg  -3.41622 -20.0566 1.25169
RightFoot  -0.728983 -0.15669 1.75708
RightToes  -3.10678e-008 1.75238e-005 3.56266e-009
Spine  -0.855187 -2.29631 -10.6188
Spine1  -0.840655 -4.84605 17.2667
HEad  -1.3476 2.51069 -7.09517
LeftShoulder1  0.790575 0.223793 -17.3811
LeftArm  -32.9079 -24.3941 -12.8178
LeftForeArm  142.736 -74.0259 -141.852
LeftHand  -0.855191 -4.44192 10.3548
RightShoulder  2.05863 3.34207 23.957
RightArm  -21.9187 -35.1125 48.3673
RightForeArm  44.1697 15.5626 6.31209
RightHand  -0.0493302 4.31093 -0.869125
LeftUpLeg  1.42065 0.568048 1.74322
LeftLeg  -2.43091 11.5042 -0.977353
LeftFoot  -0.0338093 0.241974 -2.42976
LeftToes  4.76857e-008 1.46588e-008 1.31384e-009
311
root  -2.62934 40.9709 0.853102 -7.69618 -86.3082 9.23962
RightUpLeg  3.18201 -0.938106 -0.708747
RightLeg  -3.11996 -20.4929 1.10168
RightFoot  -0.914264 -0.164861 1.90196
RightToes  -3.10678e-008 1.75238e-005 3.56266e-009
Spine  -0.254837 -2.36304 -9.92705
Spine1  -1.248 -4.77025 16.3473
HEad  -3.28231 3.04814 -6.37192
LeftShoulder1  1.22992 -1.10597 -20.2769
LeftArm  -23.8855 -14.8581 -17.673
LeftForeArm  141.312 -75.2828 -138.274
LeftHand  -0.746938 -3.77238 9.72241
RightShoulder  2.11947 3.39704 24.6383
RightArm  -20.6633 -34.9362 48.4136
RightForeArm  42.9298 16.2821 6.07999
RightHand  -0.0179137 4.39595 -0.497056
LeftUpLeg  1.56338 0.367345 1.49554
LeftLeg  -2.6476 11.0547 -0.966357
LeftFoot  0.136872 0.24551 -2.47932
LeftToes  4.76857e-008 1.46588e-008 1.31384e-009
312
root  -2.61359 40.9709 0.851611 -7.96776 -85.6547 9.36836
RightUpLeg  3.32284 -1.04978 -0.819017
RightLeg  -2.97408 -20.9407 1.05733
RightFoot  -1.00494 -0.168678 1.97785
RightToes  -3.10678e-008 1.75238e-005 3.56266e-009
Spine  0.407485 -2.41375 -9.84306
Spine1  -1.57633 -4.8178 16.2558
HEad  -5.67615 2.26653 -5.80146
LeftShoulder1  1.46599 -1.62685 -22.2484
LeftArm  -15.8853 -4.34263 -23.9121
LeftForeArm  129.063 -78.4218 -122.632
LeftHand  -0.756733 -3.83812 9.77827
RightShoulder  2.03246 3.10458 24.6847
RightArm  -20.6099 -34.3523 48.7255
RightForeArm  42.5184 16.4417 5.99635
RightHand  -0.0588529 4.68355 -0.965122
LeftUpLeg  1.7126 0.288164 1.38038
LeftLeg  -2.83536 10.5129 -0.972053
LeftFoot  0.280603 0.245767 -2.47911
LeftToes  4.76857e-008 1.46588e-008 1.31384e-009
313
root  -2.59803 40.9723 0.864459 -7.1413 -85.4916 8.55417
RightUpLeg  3.23014 -1.08919 -0.822696
RightLeg  -2.82583 -21.0491 1.06229
RightFoot  -1.0255 -0.164394 1.92661
RightToes  -3.10678e-008 1.75238e-005 3.56266e-009
Spine  0.513115 -2.31292 -9.74186
Spine1  -1.51767 -4.75422 16.3429
HEad  -7.68052 2.56027 -4.91436
LeftShoulder1  1.59855 -1.74652 -24.23
LeftArm  -10.8355 4.99265 -30.8063
LeftForeArm  80.5314 -79.5842 -70.2749
LeftHand  -0.736817 -3.42863 9.93787
RightShoulder  2.05974 3.13949 24.9477
RightArm  -21.1269 -33.835 48.5719
RightForeArm  41.5048 16.554 5.87722
RightHand  -0.165332 4.62482 -2.20765
LeftUpLeg  1.66271 0.202328 1.34519
LeftLeg  -2.85936 10.4823 -0.884755
LeftFoot  0.291366 0.246829 -2.49287
LeftToes  4.76857e-008 1.46588e-008 1.31384e-009
314
root  -2.60119 40.9737 0.877507 -7.30814 -85.6048 8.88876
RightUpLeg  3.04108 -1.0772 -0.856762
RightLeg  -2.82377 -20.9042 1.05644
RightFoot  -0.99972 -0.162323 1.90825
RightToes  -3.10678e-008 1.75238e-005 3.56266e-009
Spine  0.219977 -2.05948 -9.28868
Spine1  -1.32789 -4.39556 15.6278
HEad  -9.45419 1.66289 -3.33533
LeftShoulder1  1.57579 -1.51259 -25.2554
LeftArm  -10.7179 10.4892 -38.9866
LeftForeArm  44.3666 -67.5706 -23.7425
LeftHand  -0.666915 -3.06626 9.38918
RightShoulder  2.06815 3.07156 25.4176
RightArm  -19.7836 -33.8854 48.3587
RightForeArm  39.0022 17.3411 5.63526
RightHand  -0.151761 4.4701 -2.0718
LeftUpLeg  1.56262 0.129444 1.29348
LeftLeg  -2.98328 10.6979 -0.887606
LeftFoot  0.328662 0.247144 -2.49668
LeftToes  4.76857e-008 1.46588e-008 1.31384e-009
315
root  -2.62883 40.9736 0.898975 -6.69676 -85.9243 8.41385
RightUpLeg  3.03898 -0.986319 -0.799072
RightLeg  -3.09688 -20.6782 1.12711
RightFoot  -0.881175 -0.164247 1.95045
RightToes  -3.10678e-008 1.75238e-005 3.56266e-009
Spine  -0.0830439 -1.61345 -8.58058
Spine1  -1.26851 -3.79537 14.7012
HEad  -10.1842 0.792824 -2.11898
LeftShoulder1  1.6987 -1.62549 -26.9047
LeftArm  -15.2374 10.3152 -45.6699
LeftForeArm  43.7263 -42.9792 -7.95265
LeftHand  -0.609184 -2.77231 8.81735
RightShoulder  2.05581 2.9699 25.7383
RightArm  -19.2283 -34.1457 48.1349
RightForeArm  38.2257 17.4838 5.63737
RightHand  -0.178481 4.39065 -2.40009
LeftUpLeg  1.47588 0.172165 1.35599
LeftLeg  -2.92773 10.9385 -0.896348
LeftFoot  0.193175 0.250821 -2.5547
LeftToes  4.76857e-008 1.46588e-008 1.31384e-009
